<svg width="24" height="30" viewBox="0 0 24 30" fill="none" xmlns="http://www.w3.org/2000/svg">
<path fill-rule="evenodd" clip-rule="evenodd" d="M18.5381 9.74887C17.9574 8.8787 17.0063 7.45394 16.6334 6.89499C16.5821 6.81843 16.555 6.72817 16.555 6.63605V1.49253C16.555 1.12124 16.4075 0.764897 16.1448 0.502228C15.8822 0.239559 15.5258 0.092041 15.1545 0.092041H3.93724C3.56595 0.092041 3.20961 0.239559 2.94694 0.502228C2.68458 0.764897 2.53675 1.12124 2.53675 1.49253C2.53675 2.96335 2.53675 5.7441 2.53675 6.63605C2.53675 6.72817 2.50967 6.81843 2.45832 6.89499C2.00363 7.57625 0.690285 9.5444 0.235593 10.2253C0.0818507 10.4556 0 10.7261 0 11.0031V28.2574C0 29.0308 0.626796 29.6579 1.40049 29.6579H17.6913C18.465 29.6579 19.0918 29.0308 19.0918 28.2574V24.2828C19.0918 24.0251 18.8826 23.816 18.6249 23.816C18.3672 23.816 18.1581 24.0251 18.1581 24.2828V28.2574C18.1581 28.5151 17.9493 28.7242 17.6913 28.7242H1.40049C1.14249 28.7242 0.933658 28.5151 0.933658 28.2574V11.0031C0.933658 10.9107 0.961046 10.8204 1.01209 10.7438C1.46678 10.0626 2.78043 8.09443 3.23482 7.41348C3.38856 7.18318 3.47041 6.91273 3.47041 6.63605V1.49253C3.47041 1.36866 3.51958 1.25009 3.60735 1.16232C3.6948 1.07487 3.81368 1.0257 3.93724 1.0257H15.1545C15.2781 1.0257 15.397 1.07487 15.4844 1.16232C15.5722 1.25009 15.6214 1.36866 15.6214 1.49253V6.63605C15.6214 6.91273 15.7032 7.18318 15.8569 7.41348C16.2298 7.97212 17.1809 9.39719 17.7616 10.267C17.9045 10.4815 18.1945 10.5394 18.4089 10.3962C18.6234 10.253 18.681 9.96299 18.5381 9.74887Z" fill="#B2B3B3"/>
<path fill-rule="evenodd" clip-rule="evenodd" d="M0.466829 25.4577H6.80575C7.06344 25.4577 7.27258 25.2486 7.27258 24.9909C7.27258 24.7332 7.06344 24.5241 6.80575 24.5241H0.466829C0.209139 24.5241 0 24.7332 0 24.9909C0 25.2486 0.209139 25.4577 0.466829 25.4577ZM14.8788 12.0426H0.466829C0.209139 12.0426 0 12.2521 0 12.5094C0 12.7671 0.209139 12.9763 0.466829 12.9763H14.8788C15.1362 12.9763 15.3456 12.7671 15.3456 12.5094C15.3456 12.2521 15.1362 12.0426 14.8788 12.0426ZM4.8709 5.46686H16.0882C16.3456 5.46686 16.555 5.25772 16.555 5.00003C16.555 4.74234 16.3456 4.5332 16.0882 4.5332H4.8709C4.61352 4.5332 4.40407 4.74234 4.40407 5.00003C4.40407 5.25772 4.61352 5.46686 4.8709 5.46686ZM22.8127 18.0342C23.573 17.2739 24 16.2428 24 15.1676C24 14.0923 23.573 13.0609 22.8127 12.3006C22.8124 12.3003 22.8124 12.3003 22.8121 12.3003C22.0518 11.5397 21.0207 11.1127 19.9454 11.1127C18.8702 11.1127 17.8388 11.5397 17.0785 12.3003C14.8421 14.5367 11.6001 17.7787 9.36366 20.0151C8.60304 20.7754 8.17605 21.8068 8.17605 22.8821C8.17605 23.9573 8.60304 24.9884 9.36366 25.7487C9.36366 25.749 9.36366 25.749 9.36397 25.7493C10.1243 26.5097 11.1557 26.9367 12.2309 26.9367C13.3062 26.9367 14.3373 26.5097 15.0976 25.7493C17.3343 23.5126 20.576 20.271 22.8127 18.0342ZM22.1523 17.3741C19.9159 19.6105 16.6739 22.8525 14.4375 25.0889C13.8521 25.6743 13.0585 26.003 12.2309 26.003C11.4031 26.003 10.6095 25.6743 10.0241 25.0889L10.0238 25.0886C9.43835 24.5035 9.10971 23.7096 9.10971 22.8821C9.10971 22.0542 9.43835 21.2606 10.0238 20.6752C12.2602 18.4388 15.5022 15.1968 17.7386 12.9604C18.324 12.375 19.1176 12.0464 19.9454 12.0464C20.773 12.0464 21.5669 12.375 22.152 12.9604L22.1523 12.9607C22.7377 13.5461 23.0663 14.3397 23.0663 15.1676C23.0663 15.9951 22.7377 16.7887 22.1523 17.3741Z" fill="#B2B3B3"/>
<path fill-rule="evenodd" clip-rule="evenodd" d="M18.9555 21.2319L13.8817 16.1578C13.6993 15.9757 13.4037 15.9757 13.2213 16.1578C13.0392 16.3401 13.0392 16.6358 13.2213 16.8182L18.2954 21.892C18.4775 22.074 18.7735 22.074 18.9555 21.892C19.1376 21.7099 19.1376 21.4139 18.9555 21.2319ZM4.50155 15.436C3.1633 15.436 2.07715 16.5222 2.07715 17.8604C2.07715 19.1987 3.1633 20.2851 4.50155 20.2851C5.83979 20.2851 6.92626 19.1987 6.92626 17.8604C6.92626 16.5222 5.83979 15.436 4.50155 15.436ZM4.50155 16.3697C5.32441 16.3697 5.9926 17.0376 5.9926 17.8604C5.9926 18.6833 5.32441 19.3515 4.50155 19.3515C3.67868 19.3515 3.01081 18.6833 3.01081 17.8604C3.01081 17.0376 3.67868 16.3697 4.50155 16.3697Z" fill="#B2B3B3"/>
</svg>
